# File generated by ImageToStl.com - Free Image and 3D model conversion tools

mtllib street02.mtl

o obj1
v -0.25600002 0.00542931 0.48666076
v -0.25600002 0.00542931 0.02533838
v -0.25600002 -0.00542931 0.02533837
v -0.25600002 -0.00542931 0.48666076
v 0.25600002 0.00542931 0.02533838
v 0.25600002 -0.00542931 0.02533837
v 0.25600002 0.00542931 0.48666076
v 0.25600002 -0.00542931 0.48666076
v -0.25600002 0.00542931 0.48666076
v -0.25600002 -0.00542931 0.48666076
v -0.25600002 0.00542931 0.02533838
v -0.25600002 0.00542931 0.48666076
v -0.25600002 -0.00542931 0.48666076
v -0.25600002 -0.00542931 0.02533837
vn -1 -0 -0
vn -0 -0 -1
vn 1 -0 -0
vn -0 -0 1
vn -0 1 -0
vn -0 -1 -0
vt 0.375 0
vt 0.375 0.25
vt 0.625 0.25
vt 0.625 0
vt 0.375 0.5
vt 0.625 0.5
vt 0.375 0.75
vt 0.625 0.75
vt 0.375 1
vt 0.625 1
vt 0.125 0.5
vt 0.125 0.75
vt 0.875 0.75
vt 0.875 0.5
usemtl mat0
f 1/1/1 2/2/1 3/3/1
f 1/1/1 3/3/1 4/4/1
f 2/2/2 5/5/2 6/6/2
f 2/2/2 6/6/2 3/3/2
f 5/5/3 7/7/3 8/8/3
f 5/5/3 8/8/3 6/6/3
f 7/7/4 9/9/4 10/10/4
f 7/7/4 10/10/4 8/8/4
f 11/11/5 12/12/5 7/7/5
f 11/11/5 7/7/5 5/5/5
f 6/6/6 8/8/6 13/13/6
f 6/6/6 13/13/6 14/14/6
# Vertices: 14, normals: 6, texture coordinates: 14, faces: 12

